<svg width="111" height="37" viewBox="0 0 111 37" fill="none" xmlns="http://www.w3.org/2000/svg">
<path d="M58.931 24.9703H63.3166L59.0508 18.9567C61.7109 18.2859 62.9331 16.2494 62.9331 13.9254C62.9331 11.1942 61.2077 8.46289 57.3733 8.46289H50.6152V24.9703H54.3777V19.1723H55.1206L58.931 24.9703ZM54.3777 11.7452H56.87C58.4038 11.7452 59.1467 12.9192 59.1467 14.0213C59.1467 15.1233 58.4278 16.2015 56.7742 16.2015H54.3777V11.7452Z" fill="black"/>
<path d="M70.4146 25.1859C73.602 25.1859 76.5017 22.8859 76.5017 19.364C76.5017 15.8181 73.602 13.5181 70.4146 13.5181C67.2273 13.5181 64.3516 15.8181 64.3516 19.364C64.3516 22.8859 67.2273 25.1859 70.4146 25.1859ZM70.4146 21.9036C69.0487 21.9036 67.9463 20.8973 67.9463 19.364C67.9463 17.8307 69.0487 16.8004 70.4146 16.8004C71.7806 16.8004 72.883 17.8307 72.883 19.364C72.883 20.8973 71.7806 21.9036 70.4146 21.9036Z" fill="black"/>
<path d="M84.2225 25.1859C87.4098 25.1859 90.3095 22.8859 90.3095 19.364C90.3095 15.8181 87.4098 13.5181 84.2225 13.5181C81.0352 13.5181 78.1594 15.8181 78.1594 19.364C78.1594 22.8859 81.0352 25.1859 84.2225 25.1859ZM84.2225 21.9036C82.8565 21.9036 81.7541 20.8973 81.7541 19.364C81.7541 17.8307 82.8565 16.8004 84.2225 16.8004C85.5885 16.8004 86.6909 17.8307 86.6909 19.364C86.6909 20.8973 85.5885 21.9036 84.2225 21.9036Z" fill="black"/>
<path d="M99.4493 13.8056H97.1008V9.78061H93.554V13.8056H91.517V16.465H93.554V24.9703H97.1008V16.465H99.4493V13.8056Z" fill="black"/>
<path d="M111 13.8056H101.175V17.0879H105.824L100.863 22.3588V24.9703H111V21.688H105.968L111 16.4411V13.8056Z" fill="black"/>
<path d="M8.95696 31.0875C8.95696 31.0875 16.2276 23.5589 15.599 14.9744C14.9704 6.38977 6.6806 0 6.6806 0C6.6806 0 -0.590068 7.52858 0.0385314 16.1132C0.667131 24.6977 8.95696 31.0875 8.95696 31.0875Z" fill="#7675FD"/>
<path d="M8.85468 31.3079C8.85468 31.3079 18.3004 30.3054 22.9592 23.9473C27.618 17.5893 25.7257 8.28332 25.7257 8.28332C25.7257 8.28332 16.2799 9.28582 11.6211 15.6439C6.96235 22.0019 8.85468 31.3079 8.85468 31.3079Z" fill="#F26C74"/>
<path d="M9.42172 31.436C9.42172 31.436 17.3339 34.9881 24.8164 32.5063C32.299 30.0245 36.5183 22.4486 36.5183 22.4486C36.5183 22.4486 28.6061 18.8965 21.1236 21.3783C13.6411 23.8601 9.42172 31.436 9.42172 31.436Z" fill="#FAA881"/>
</svg>
